<svg width="40" height="40" viewBox="0 0 40 40" fill="none" xmlns="http://www.w3.org/2000/svg">
<path d="M2.90821 30.1683L4.40402 26.2069L6.26603 23.5271L8.6013 21.5658L12.8296 20.3152L16.1905 19.0738L16.9462 18.2607L19.5468 21.541L16.7802 22.7513L10.7876 24.635L8.5563 27.1875C7.92102 28.2157 7.35095 29.2828 6.84946 30.3824C6.89446 30.6167 5.42968 31.5865 5.34434 31.8084C5.25899 32.0303 3.41716 31.9186 3.40474 31.8084C3.21287 31.4349 3.00048 31.0723 2.76855 30.7222L2.90821 30.1683Z" fill="#BA703E"/>
<path d="M18.1021 12.4465C18.1021 12.4465 16.8608 14.2217 16.9461 14.5258C16.9189 15.5051 16.8371 16.4821 16.7009 17.4522L17.6319 19.3701L19.8446 21.783L25.8962 26.4721L26.5385 28.8183L27.2384 31.2358L28.2997 32.5547L30.2005 32.8495L31.6358 31.709L31.0477 28.6057C31.0477 28.6057 28.6007 24.7575 28.4844 24.6086C28.368 24.4596 25.7705 21.5812 25.7705 21.5812L21.9223 17.7595L18.1021 12.4465Z" fill="#BA703E"/>
<path d="M22.2637 18.5849L22.9154 15.8835L22.0108 11.8119L19.854 8.29576L16.4077 6.01635L13.4021 5L9.34914 5.63619L5.56305 7.60216L2.95469 10.5286L1.79248 13.9811V18.2606L4.5405 25.659L8.02866 21.8652L6.72681 18.2606L6.36837 14.5552L7.25283 12.3208L9.27 10.3735L12.5983 9.34779C12.5983 9.34779 15.0919 9.98553 15.2843 10.0135C15.4767 10.0414 18.1021 12.4775 18.1021 12.4775L22.2637 18.5849Z" fill="#BA703E"/>
<path d="M20.8733 9.51848C21.8157 8.77475 22.7016 7.96202 23.5236 7.08701L27.3872 5.16138L32.3945 5.65326L35.653 7.58354C35.653 7.58354 37.5104 10.0305 37.5569 10.1066C37.6035 10.1826 38.9069 13.196 38.9069 13.196C38.9069 13.196 38.7145 17.5267 38.6803 17.7144C38.6462 17.9022 37.439 21.9536 37.439 21.9536L34.2999 26.4224L31.4852 29.231L28.9622 25.2618L32.0655 22.6472C32.0655 22.6472 34.1975 18.7106 34.1975 18.5834C34.1975 18.4561 34.4551 14.8857 34.4551 14.8857L33.1455 11.59L30.4875 9.81951L27.4974 9.70623L24.4297 11.3898L22.5786 13.3884L20.8733 9.51848Z" fill="#BA703E"/>
<path d="M10.4477 25.4015L12.2026 26.9532C12.2026 26.9532 15.8832 28.3249 15.9561 28.3404C17.144 28.5434 18.343 28.6745 19.5467 28.733C19.7096 28.6135 22.9154 28.0844 22.9154 28.0844C22.9154 28.0844 25.7549 26.9594 25.8915 26.9532C26.2441 27.6774 26.5378 28.4287 26.7697 29.2L27.6651 31.391C27.6651 31.391 25.5734 32.5625 25.5175 32.5827C25.4617 32.6029 21.8758 33.3865 21.8758 33.3865C21.8758 33.3865 18.2479 33.7961 17.9966 33.7806C16.3216 33.6122 14.6583 33.3433 13.0157 32.9753C12.9753 32.7891 9.04185 30.7796 8.83703 30.6291C8.6322 30.4786 7.67017 29.4204 7.67017 29.4204V28.9828C7.67017 28.9828 9.25908 26.1634 9.35994 26.1587C9.4608 26.1541 10.2723 25.0074 10.384 25.099C10.4958 25.1905 10.4477 25.4015 10.4477 25.4015Z" fill="#BA703E"/>
<path d="M22.7276 18.5848C22.7276 18.5848 17.4519 5.09612 9.47006 9.37565C1.48824 13.6552 7.66857 21.9551 7.66857 21.9551L6.27206 17.7656L6.70653 12.8917L8.86025 10.6775L12.3531 9.51995L16.0042 10.5673L17.5977 12.0119L19.9609 15.213L22.7276 18.5848Z" fill="#9B5729"/>
<path d="M16.7009 18.5259C16.7009 18.5259 16.7009 21.3546 19.3093 21.3298L16.7009 18.5259Z" fill="#9B5729"/>
<path d="M10.5221 25.659C10.82 25.5209 7.77872 28.8012 7.88423 29.878L7.3877 29.38L8.71748 26.7576L10.3871 25.0989L10.5221 25.659Z" fill="#9B5729"/>
<path d="M27.4975 31.9356C27.2539 31.7137 25.049 30.8028 26.115 26.9531L26.7357 30.0441L27.4975 31.9356Z" fill="#9B5729"/>
<path d="M22.2078 12.6158C22.2078 12.6158 28.9653 4.81084 33.6172 11.9796L32.7002 11.3698L30.7901 10.2836L28.1522 9.89568L24.7742 10.9819L22.5786 13.3885L22.2078 12.6158Z" fill="#9B5729"/>
<path d="M22.2077 18.2607C22.0526 18.2995 34.5063 31.0714 29.1546 32.7177L30.4968 32.8806L31.645 31.9357L31.3828 30.3607L30.7932 27.7554L28.2453 24.0314L24.0791 19.9334L22.2077 18.2607Z" fill="#DB8F5D"/>
<path d="M2.3356 11.846C2.21301 11.5264 14.9352 -2.60938 22.7277 15.0378L22.0108 11.8119L19.5468 8.23062L16.4077 6.01638L14.057 5.22192H10.7876L6.26599 7.23755L3.81434 9.278L2.3356 11.846Z" fill="#DB8F5D"/>
<path d="M38.0534 11.1695C38.0659 11.3758 31.3657 1.14564 21.0874 10.1298L20.4326 9.51848L22.065 8.27714L23.6477 6.68978L27.3872 5.16138L30.5433 5.24206L33.0633 5.74791L34.8011 6.87132L36.3823 8.54093L38.0534 11.1695Z" fill="#DB8F5D"/>
<path d="M12.2026 27.1611C13.9182 28.582 16.0501 29.4047 18.2754 29.5047C20.5006 29.6046 22.6978 28.9764 24.5338 27.7151C24.5338 27.7151 22.7121 28.3078 22.529 28.3358C22.3459 28.3637 18.3674 28.6337 18.3674 28.6337L15.787 28.2628L12.2026 27.1611Z" fill="#DB8F5D"/>
<path d="M7.47617 29.0667C7.47617 29.0667 16.6978 35.7311 27.4928 30.983L27.5223 31.7495C27.5223 31.7495 25.8263 32.4353 25.6696 32.5083C25.5128 32.5812 22.5243 33.6069 22.5243 33.6069L17.5931 33.8055L13.3136 32.9753L10.3033 31.5788L8.21787 30.1668L7.37842 29.5244L7.47617 29.0667Z" fill="#9B5729"/>
<path d="M18.5257 12.7553C18.5257 12.7553 13.5681 19.0132 25.9474 26.2409L19.4086 21.6014L16.701 18.2607L16.3906 15.7361L17.7763 12.1455L18.5257 12.7553Z" fill="#9B5729"/>
<path d="M18.3673 21.1919C16.6387 21.9541 14.8704 22.6228 13.0699 23.1951C9.96658 24.1913 6.64444 26.0921 6.75616 29.8782L8.52507 27.4886L10.3871 25.099L13.0746 23.9709L16.1485 22.9515L19.3139 21.33L18.5923 20.5898L18.3673 21.1919Z" fill="#9B5729"/>
<path d="M9.39862 21.3298C9.39862 21.3298 4.70635 25.3549 4.04223 29.0665C3.37812 32.7781 5.7289 31.4359 5.7289 31.4359C5.38388 31.6692 5.01511 31.8653 4.62877 32.0209C4.48446 32.0007 3.4045 31.8161 3.4045 31.8161L2.90796 30.1682L3.44794 28.1215L5.39064 24.6783L7.38765 22.3896L9.39862 21.3298Z" fill="#DB8F5D"/>
<path d="M31.0571 28.6413C31.0571 28.6413 37.8364 22.461 38.0536 19.533C38.0536 19.533 36.8294 22.8629 36.803 23.1111C36.7766 23.3594 33.5895 26.9112 33.6174 27.161C32.9576 28.0108 32.2245 28.8011 31.4264 29.5226L31.0571 28.6413Z" fill="#9B5729"/>
<path d="M20.7524 9.65199C21.8748 8.14497 23.3629 6.94911 25.0762 6.17746C26.7894 5.40582 28.6712 5.08389 30.5435 5.24213C38.1033 6.21348 38.8419 14.127 38.8419 14.127C38.8419 14.127 40.1205 22.2268 31.3162 29.2295" stroke="#641926" stroke-width="0.4" stroke-miterlimit="10"/>
<path d="M7.36768 29.4202C10.0888 31.8098 13.4759 33.3097 17.0742 33.7185C20.6725 34.1273 24.3097 33.4255 27.4976 31.7073" stroke="#641926" stroke-width="0.4" stroke-miterlimit="10"/>
<path d="M4.62891 25.8359C4.81511 25.5256 5.01062 25.2292 5.21854 24.9267C5.93507 23.7702 6.86627 22.7616 7.96191 21.9552C9.73207 20.9164 11.7214 20.3078 13.7698 20.1785C14.4024 20.0904 15.0105 19.8752 15.5577 19.5459C16.1049 19.2165 16.5798 18.7799 16.9539 18.2622" stroke="#641926" stroke-width="0.4" stroke-miterlimit="10"/>
<path d="M22.3971 18.4236C23.0478 16.7575 23.0944 14.9161 22.529 13.2192C22.1467 11.9373 21.5479 10.7303 20.7585 9.65039C19.3821 7.57431 17.2844 6.08265 14.8715 5.46409C12.4586 4.84553 9.902 5.14405 7.69651 6.30187C-3.68503 11.8693 4.5404 25.659 4.5404 25.659C4.56989 25.718 4.59782 25.777 4.62885 25.8359C2.85373 28.7391 2.15237 31.5228 3.95853 31.9712C5.95243 32.4693 7.28221 29.6437 7.28221 29.6437C7.28221 29.6437 7.31014 29.5615 7.36756 29.4172C7.99446 27.8107 9.00694 26.3831 10.3157 25.2602C10.9652 24.7398 11.7288 24.3808 12.5439 24.2129C14.9562 23.6317 17.2636 22.6796 19.3837 21.3904" stroke="#641926" stroke-width="0.4" stroke-miterlimit="10"/>
<path d="M10.3081 25.2634C14.3207 29.3117 20.5383 29.5445 26.115 26.9051" stroke="#641926" stroke-width="0.4" stroke-miterlimit="10"/>
<path d="M22.5291 13.2193C23.7533 11.8849 26.9436 8.31289 31.3845 10.2897C35.9433 12.3209 35.6655 20.9544 28.9592 25.2587" stroke="#641926" stroke-width="0.4" stroke-miterlimit="10"/>
<path d="M7.96184 21.9552C6.95015 19.9876 4.33092 13.9051 8.75009 10.8064C12.7844 7.97147 16.3207 10.4293 18.1377 12.3208" stroke="#641926" stroke-width="0.4" stroke-miterlimit="10"/>
<path d="M28.9593 25.2587C28.3463 24.4286 27.8731 23.8777 27.8731 23.8777C27.8731 23.8777 24.2763 20.2965 23.3903 19.4477C23.0176 19.1493 22.684 18.8052 22.3972 18.4236C21.3995 17.0271 19.8882 14.6546 19.3094 13.7686C19.1463 13.5215 18.9702 13.2832 18.7818 13.0548C18.6003 12.8329 18.3861 12.5893 18.1379 12.3286C17.5668 13.0373 17.1442 13.8537 16.8952 14.7291C16.6463 15.6046 16.576 16.5212 16.6886 17.4243C16.7389 17.7153 16.8255 17.9989 16.9462 18.2684C17.552 19.4569 18.3794 20.5187 19.3839 21.3966C21.0109 22.8173 22.7446 24.111 24.5696 25.2665C25.3283 25.853 25.7023 26.0082 26.1212 26.9128C26.3555 27.6453 26.5115 28.4005 26.5867 29.1658C26.7295 30.0653 27.0395 30.93 27.5007 31.7152C27.6453 31.9936 27.8437 32.2404 28.0845 32.4414C28.3253 32.6424 28.6036 32.7936 28.9033 32.8861C29.203 32.9787 29.5181 33.0107 29.8303 32.9805C30.1425 32.9502 30.4456 32.8582 30.722 32.7099C32.0176 32.1528 31.9307 30.7594 31.3194 29.2403C30.6922 27.8279 29.9011 26.4941 28.9624 25.2665" stroke="#641926" stroke-width="0.4" stroke-miterlimit="10"/>
<path d="M4.95584 16.281C4.97384 16.1528 4.79925 16.0224 4.56587 15.9896C4.3325 15.9568 4.12872 16.0341 4.11072 16.1623C4.09272 16.2904 4.26731 16.4209 4.50069 16.4536C4.73406 16.4864 4.93784 16.4091 4.95584 16.281Z" fill="#EDC7AB"/>
<path d="M8.06119 9.04304C8.34387 8.9306 8.52296 8.71357 8.4612 8.55829C8.39943 8.40302 8.1202 8.36829 7.83752 8.48073C7.55484 8.59317 7.37575 8.8102 7.43752 8.96548C7.49928 9.12075 7.77851 9.15548 8.06119 9.04304Z" fill="#EDC7AB"/>
<path d="M23.5007 10.6711C23.8073 10.5491 24.0016 10.3141 23.9348 10.1461C23.868 9.97806 23.5653 9.94071 23.2587 10.0626C22.9521 10.1846 22.7578 10.4197 22.8246 10.5877C22.8915 10.7557 23.1942 10.793 23.5007 10.6711Z" fill="#EDC7AB"/>
<path d="M18.8882 31.4101C19.2211 31.2777 19.4318 31.0219 19.359 30.8387C19.2861 30.6556 18.9573 30.6145 18.6244 30.7468C18.2916 30.8792 18.0808 31.135 18.1536 31.3182C18.2265 31.5013 18.5554 31.5425 18.8882 31.4101Z" fill="#EDC7AB"/>
<path d="M30.7894 25.7454C31.1039 25.6203 31.3032 25.3788 31.2344 25.206C31.1657 25.0332 30.855 24.9945 30.5405 25.1197C30.2259 25.2448 30.0267 25.4863 30.0954 25.6591C30.1641 25.8319 30.4748 25.8705 30.7894 25.7454Z" fill="#EDC7AB"/>
<path d="M5.63068 28.5745C5.95925 28.443 6.16701 28.19 6.09471 28.0094C6.02242 27.8288 5.69745 27.789 5.36887 27.9205C5.04029 28.0521 4.83253 28.3051 4.90483 28.4857C4.97713 28.6663 5.3021 28.7061 5.63068 28.5745Z" fill="#EDC7AB"/>
<path d="M21.4284 21.0879C21.6972 20.9802 21.8671 20.7729 21.8078 20.6249C21.7485 20.477 21.4825 20.4444 21.2136 20.5522C20.9448 20.6599 20.7749 20.8673 20.8342 21.0152C20.8935 21.1632 21.1595 21.1957 21.4284 21.0879Z" fill="#EDC7AB"/>
<path d="M35.9763 15.8514C36.2675 15.7349 36.4517 15.5107 36.3877 15.3508C36.3237 15.1909 36.0357 15.1558 35.7445 15.2723C35.4533 15.3889 35.2692 15.613 35.3332 15.7729C35.3972 15.9329 35.6852 15.968 35.9763 15.8514Z" fill="#EDC7AB"/>
<path d="M4.12774 12.1453C4.4054 12.1453 4.63049 11.9967 4.63049 11.8133C4.63049 11.6299 4.4054 11.4812 4.12774 11.4812C3.85009 11.4812 3.625 11.6299 3.625 11.8133C3.625 11.9967 3.85009 12.1453 4.12774 12.1453Z" fill="#EDC7AB"/>
<path d="M35.5306 9.8504C35.8082 9.8504 36.0333 9.70173 36.0333 9.51834C36.0333 9.33495 35.8082 9.18628 35.5306 9.18628C35.2529 9.18628 35.0278 9.33495 35.0278 9.51834C35.0278 9.70173 35.2529 9.8504 35.5306 9.8504Z" fill="#EDC7AB"/>
<path d="M27.4107 7.59283C27.6884 7.59283 27.9134 7.44416 27.9134 7.26077C27.9134 7.07738 27.6884 6.92871 27.4107 6.92871C27.133 6.92871 26.908 7.07738 26.908 7.26077C26.908 7.44416 27.133 7.59283 27.4107 7.59283Z" fill="#EDC7AB"/>
<path d="M34.5762 20.9217C34.8539 20.9217 35.079 20.773 35.079 20.5896C35.079 20.4062 34.8539 20.2576 34.5762 20.2576C34.2986 20.2576 34.0735 20.4062 34.0735 20.5896C34.0735 20.773 34.2986 20.9217 34.5762 20.9217Z" fill="#EDC7AB"/>
<path d="M24.0328 29.3055C24.3104 29.3055 24.5355 29.1568 24.5355 28.9734C24.5355 28.79 24.3104 28.6414 24.0328 28.6414C23.7551 28.6414 23.53 28.79 23.53 28.9734C23.53 29.1568 23.7551 29.3055 24.0328 29.3055Z" fill="#EDC7AB"/>
<path d="M26.115 25.2383C26.3927 25.2383 26.6178 25.0897 26.6178 24.9063C26.6178 24.7229 26.3927 24.5742 26.115 24.5742C25.8374 24.5742 25.6123 24.7229 25.6123 24.9063C25.6123 25.0897 25.8374 25.2383 26.115 25.2383Z" fill="#EDC7AB"/>
<path d="M18.8702 10.1827C19.1478 10.1827 19.3729 10.034 19.3729 9.85061C19.3729 9.66722 19.1478 9.51855 18.8702 9.51855C18.5925 9.51855 18.3674 9.66722 18.3674 9.85061C18.3674 10.034 18.5925 10.1827 18.8702 10.1827Z" fill="#EDC7AB"/>
<path d="M13.7886 31.1146C14.0663 31.1146 14.2914 30.9659 14.2914 30.7825C14.2914 30.5991 14.0663 30.4504 13.7886 30.4504C13.511 30.4504 13.2859 30.5991 13.2859 30.7825C13.2859 30.9659 13.511 31.1146 13.7886 31.1146Z" fill="#EDC7AB"/>
<path d="M28.9747 31.1146C29.2523 31.1146 29.4774 30.9659 29.4774 30.7825C29.4774 30.5991 29.2523 30.4504 28.9747 30.4504C28.697 30.4504 28.4719 30.5991 28.4719 30.7825C28.4719 30.9659 28.697 31.1146 28.9747 31.1146Z" fill="#EDC7AB"/>
<path d="M34.0753 25.0648C34.3529 25.0648 34.578 24.9161 34.578 24.7327C34.578 24.5493 34.3529 24.4006 34.0753 24.4006C33.7976 24.4006 33.5725 24.5493 33.5725 24.7327C33.5725 24.9161 33.7976 25.0648 34.0753 25.0648Z" fill="#EDC7AB"/>
<path d="M8.13433 24.7325C8.41199 24.7325 8.63708 24.5838 8.63708 24.4004C8.63708 24.217 8.41199 24.0684 8.13433 24.0684C7.85668 24.0684 7.63159 24.217 7.63159 24.4004C7.63159 24.5838 7.85668 24.7325 8.13433 24.7325Z" fill="#EDC7AB"/>
<path d="M16.1393 20.9774C16.3698 20.9774 16.5567 20.8538 16.5567 20.7012C16.5567 20.5487 16.3698 20.425 16.1393 20.425C15.9088 20.425 15.7219 20.5487 15.7219 20.7012C15.7219 20.8538 15.9088 20.9774 16.1393 20.9774Z" fill="#EDC7AB"/>
<path d="M3.58612 19.6699C3.63312 19.5221 3.48982 19.3446 3.26605 19.2734C3.04227 19.2023 2.82277 19.2645 2.77577 19.4123C2.72877 19.5601 2.87208 19.7376 3.09585 19.8088C3.31962 19.8799 3.53913 19.8177 3.58612 19.6699Z" fill="#EDC7AB"/>
<path d="M24.164 31.742C24.2109 31.5942 24.0676 31.4168 23.8437 31.3457C23.6199 31.2747 23.4005 31.3369 23.3535 31.4848C23.3066 31.6326 23.45 31.81 23.6738 31.8811C23.8976 31.9521 24.1171 31.8899 24.164 31.742Z" fill="#EDC7AB"/>
<path d="M11.6791 21.7274C11.7261 21.5796 11.5827 21.4021 11.3589 21.3311C11.1351 21.26 10.9156 21.3223 10.8687 21.4701C10.8217 21.6179 10.9651 21.7954 11.1889 21.8664C11.4127 21.9375 11.6322 21.8752 11.6791 21.7274Z" fill="#EDC7AB"/>
<path d="M19.2753 17.3255C19.3223 17.1777 19.1789 17.0003 18.9551 16.9292C18.7313 16.8582 18.5118 16.9204 18.4649 17.0683C18.4179 17.2161 18.5613 17.3935 18.7851 17.4646C19.0089 17.5356 19.2284 17.4734 19.2753 17.3255Z" fill="#EDC7AB"/>
<path d="M13.7885 7.26076C13.9367 7.26076 14.0569 7.14057 14.0569 6.99232C14.0569 6.84406 13.9367 6.72388 13.7885 6.72388C13.6402 6.72388 13.52 6.84406 13.52 6.99232C13.52 7.14057 13.6402 7.26076 13.7885 7.26076Z" fill="#EDC7AB"/>
<path d="M5.88734 21.8667C6.03559 21.8667 6.15578 21.7465 6.15578 21.5983C6.15578 21.45 6.03559 21.3298 5.88734 21.3298C5.73908 21.3298 5.6189 21.45 5.6189 21.5983C5.6189 21.7465 5.73908 21.8667 5.88734 21.8667Z" fill="#EDC7AB"/>
<path d="M31.3768 9.21901C31.5251 9.21901 31.6453 9.09882 31.6453 8.95057C31.6453 8.80231 31.5251 8.68213 31.3768 8.68213C31.2286 8.68213 31.1084 8.80231 31.1084 8.95057C31.1084 9.09882 31.2286 9.21901 31.3768 9.21901Z" fill="#EDC7AB"/>
<path d="M9.8534 28.6055C10.0017 28.6055 10.1218 28.4853 10.1218 28.337C10.1218 28.1888 10.0017 28.0686 9.8534 28.0686C9.70515 28.0686 9.58496 28.1888 9.58496 28.337C9.58496 28.4853 9.70515 28.6055 9.8534 28.6055Z" fill="#EDC7AB"/>
<path d="M28.9747 28.3714C29.123 28.3714 29.2432 28.2512 29.2432 28.1029C29.2432 27.9547 29.123 27.8345 28.9747 27.8345C28.8265 27.8345 28.7063 27.9547 28.7063 28.1029C28.7063 28.2512 28.8265 28.3714 28.9747 28.3714Z" fill="#EDC7AB"/>
<path d="M25.0429 22.9173C25.1911 22.9173 25.3113 22.7971 25.3113 22.6488C25.3113 22.5006 25.1911 22.3804 25.0429 22.3804C24.8946 22.3804 24.7744 22.5006 24.7744 22.6488C24.7744 22.7971 24.8946 22.9173 25.0429 22.9173Z" fill="#EDC7AB"/>
<path d="M37.5634 18.5291C37.7116 18.5291 37.8318 18.4089 37.8318 18.2606C37.8318 18.1124 37.7116 17.9922 37.5634 17.9922C37.4151 17.9922 37.2949 18.1124 37.2949 18.2606C37.2949 18.4089 37.4151 18.5291 37.5634 18.5291Z" fill="#EDC7AB"/>
<path d="M21.4384 14.4077C21.5866 14.4077 21.7068 14.2875 21.7068 14.1393C21.7068 13.991 21.5866 13.8708 21.4384 13.8708C21.2901 13.8708 21.1699 13.991 21.1699 14.1393C21.1699 14.2875 21.2901 14.4077 21.4384 14.4077Z" fill="#EDC7AB"/>
<path d="M14.057 22.4981C14.2053 22.4981 14.3255 22.3779 14.3255 22.2296C14.3255 22.0814 14.2053 21.9612 14.057 21.9612C13.9088 21.9612 13.7886 22.0814 13.7886 22.2296C13.7886 22.3779 13.9088 22.4981 14.057 22.4981Z" fill="#EDC7AB"/>
</svg>
