<svg width="40" height="36" viewBox="0 0 40 36" fill="none" xmlns="http://www.w3.org/2000/svg">
<path fill-rule="evenodd" clip-rule="evenodd" d="M3.91675 32.0844V15.1188H6.52684V32.0844C6.52684 32.4305 6.66433 32.7624 6.90907 33.0072C7.15382 33.2519 7.48576 33.3894 7.83188 33.3894H31.3227C31.6688 33.3894 32.0007 33.2519 32.2455 33.0072C32.4902 32.7624 32.6277 32.4305 32.6277 32.0844V15.1188H35.2378V32.0844C35.2378 33.1227 34.8253 34.1185 34.0911 34.8528C33.3568 35.587 32.361 35.9995 31.3227 35.9995H7.83188C6.79352 35.9995 5.79769 35.587 5.06346 34.8528C4.32923 34.1185 3.91675 33.1227 3.91675 32.0844ZM32.6277 3.3734V12.5087L27.4075 7.28853V3.3734C27.4075 3.02728 27.545 2.69534 27.7898 2.4506C28.0345 2.20585 28.3665 2.06836 28.7126 2.06836H31.3227C31.6688 2.06836 32.0007 2.20585 32.2455 2.4506C32.4902 2.69534 32.6277 3.02728 32.6277 3.3734Z" fill="white"/>
<path fill-rule="evenodd" clip-rule="evenodd" d="M17.732 0.764198C18.2214 0.274882 18.8852 0 19.5773 0C20.2694 0 20.9332 0.274882 21.4226 0.764198L38.7719 18.1108C39.0169 18.3559 39.1546 18.6883 39.1546 19.0348C39.1546 19.3814 39.0169 19.7137 38.7719 19.9588C38.5268 20.2038 38.1945 20.3415 37.8479 20.3415C37.5014 20.3415 37.169 20.2038 36.9239 19.9588L19.5773 2.60953L2.23066 19.9588C1.98561 20.2038 1.65325 20.3415 1.30669 20.3415C0.960136 20.3415 0.627774 20.2038 0.382721 19.9588C0.137669 19.7137 0 19.3814 0 19.0348C0 18.6883 0.137669 18.3559 0.382721 18.1108L17.732 0.764198Z" fill="white"/>
</svg>
